PathFileType	4	(X/Y/Z)	C:/Users/opensim2020/Desktop/walking_exp_matlab/subject03_walking08_straight_01.trc																																																																																																																																																							
DataRate	CameraRate	NumFrames	NumMarkers	Units	OrigDataRate	OrigDataStartFrame	OrigNumFrames																																																																																																																																																			
100	100	6	51	mm	100	652	451																																																																																																																																																			
Frame#	Time	LFHD			RFHD			LBHD			RBHD			C7			T10			CLAV			STRN			RBAK			LSHO			LUPA			LELB			LFRM			LWRA			LWRB			LFIN			RSHO			RUPA			RELB			RFRM			RWRA			RWRB			RFIN			LASI			RASI			LPSI			RPSI			LTHI			LKNE			LTIB			LANK			LHEE			LTOE			RTHI			RKNE			RTIB			RANK			RHEE			RTOE			*39			*40			*41			*42			*43			*44			*45			*46			*47			*48			*49			*50		
		X1	Y1	Z1	X2	Y2	Z2	X3	Y3	Z3	X4	Y4	Z4	X5	Y5	Z5	X6	Y6	Z6	X7	Y7	Z7	X8	Y8	Z8	X9	Y9	Z9	X10	Y10	Z10	X11	Y11	Z11	X12	Y12	Z12	X13	Y13	Z13	X14	Y14	Z14	X15	Y15	Z15	X16	Y16	Z16	X17	Y17	Z17	X18	Y18	Z18	X19	Y19	Z19	X20	Y20	Z20	X21	Y21	Z21	X22	Y22	Z22	X23	Y23	Z23	X24	Y24	Z24	X25	Y25	Z25	X26	Y26	Z26	X27	Y27	Z27	X28	Y28	Z28	X29	Y29	Z29	X30	Y30	Z30	X31	Y31	Z31	X32	Y32	Z32	X33	Y33	Z33	X34	Y34	Z34	X35	Y35	Z35	X36	Y36	Z36	X37	Y37	Z37	X38	Y38	Z38	X39	Y39	Z39	X40	Y40	Z40	X41	Y41	Z41	X42	Y42	Z42	X43	Y43	Z43	X44	Y44	Z44	X45	Y45	Z45	X46	Y46	Z46	X47	Y47	Z47	X48	Y48	Z48	X49	Y49	Z49	X50	Y50	Z50	X51	Y51	Z51
																																																																																																																																																										
170	1.69	-457.01077	1622.172	-1054.35999	-478.02676	1624.47668	-922.86322	-579.50635	1567.83557	-1070.37378	-595.65167	1569.70422	-940.04327	-611.63745	1414.45569	-1015.30273	-652.1123	1103.74829	-1021.65045	-491.50345	1335.5083	-1006.17694	-451.54532	1169.22009	-1016.15045	-674.99683	1238.06763	-929.7879	-521.13611	1376.2229	-1163.61035	-511.56784	1180.3844	-1234.60205	-489.28244	1059.00928	-1243.48352	-438.75882	939.43109	-1232.90686	-398.64359	830.79926	-1192.91479	-416.8038	827.64087	-1245.57397	-382.46762	752.2533	-1228.28711	-551.74414	1357.59167	-850.07324	-560.57849	1133.26953	-786.1391	-545.43396	1020.74182	-775.28265	-529.85486	884.54224	-775.15002	-496.78598	789.95331	-810.41949	-531.69812	783.86938	-769.53412	-510.15555	712.21002	-781.06116	-492.71106	929.42395	-1138.64868	-484.14542	940.22852	-900.76062	-652.01587	960.19519	-1083.66785	-646.08173	971.41638	-935.18073	-602.16357	635.81787	-1172.60498	-639.6712	462.06775	-1137.64734	-751.33313	295.98825	-1139.40002	-835.14166	101.2017	-1102.11658	-882.07062	77.15563	-1063.62598	-698.50226	28.85397	-1088.91443	-507.07059	649.15845	-852.95441	-461.92166	473.36212	-887.83221	-470.6803	286.25369	-877.53705	-448.65182	69.28733	-917.76642	-490.38876	34.62434	-969.20123	-306.27527	35.78131	-936.32086	-551.67047	1673.23218	-1016.22125	NaN	NaN	NaN	NaN	NaN	NaN	NaN	NaN	NaN	NaN	NaN	NaN	NaN	NaN	NaN	NaN	NaN	NaN	NaN	NaN	NaN	NaN	NaN	NaN	NaN	NaN	NaN	NaN	NaN	NaN	NaN	NaN	NaN
171	1.7	-450.82843	1623.354	-1053.01257	-471.62134	1625.48462	-921.4223	-573.34479	1569.04688	-1068.89966	-589.27661	1570.77271	-938.5365	-605.0827	1415.41602	-1013.66803	-645.22186	1104.65686	-1019.51666	-484.75476	1336.68298	-1004.94006	-444.60785	1170.49548	-1015.18781	-667.78308	1239.12598	-927.6579	-514.94366	1377.66357	-1162.06763	-505.87161	1181.85803	-1233.06519	-484.88138	1060.27026	-1242.18176	-435.30743	940.1507	-1232.10339	-396.05283	830.77222	-1192.66553	-414.55246	828.18042	-1245.41882	-381.69409	751.78162	-1228.19189	-544.32446	1358.74341	-848.7077	-553.22949	1134.55615	-784.51343	-538.23425	1022.02496	-773.6156	-522.50854	885.83734	-773.58429	-489.45126	791.28839	-808.94043	-524.32336	785.22351	-767.95996	-503.13763	713.27991	-779.70331	-486.29401	930.78821	-1137.13623	-476.47766	941.07336	-899.39453	-645.29016	961.63318	-1081.33533	-638.4563	972.72137	-932.87744	-594.65887	636.5144	-1172.10461	-630.56201	462.04971	-1138.86389	-745.00793	297.41946	-1139.80432	-832.20685	104.30379	-1102.45251	-879.99353	81.74474	-1063.54346	-698.02185	28.99319	-1088.92053	-502.34708	649.61627	-851.84265	-459.09741	473.26987	-886.42145	-469.27701	286.2019	-876.64709	-448.51721	69.22462	-917.4931	-490.51733	34.80584	-969.03174	-306.00467	35.45667	-936.18622	-545.4035	1674.35522	-1014.58423	NaN	NaN	NaN	NaN	NaN	NaN	NaN	NaN	NaN	NaN	NaN	NaN	NaN	NaN	NaN	NaN	NaN	NaN	NaN	NaN	NaN	NaN	NaN	NaN	NaN	NaN	NaN	NaN	NaN	NaN	NaN	NaN	NaN
172	1.71	-444.7103	1624.38123	-1051.64612	-465.28635	1626.37964	-920.04065	-567.21802	1570.03821	-1067.37964	-582.96106	1571.66968	-936.9812	-598.61047	1416.25818	-1012.02325	-638.37994	1105.59473	-1017.19196	-478.17426	1337.75879	-1003.69452	-437.76331	1171.61133	-1014.11731	-660.61749	1240.03503	-925.50293	-508.76413	1378.86926	-1160.61206	-500.1489	1183.15161	-1231.62085	-480.285	1061.31018	-1240.74731	-431.76358	940.72308	-1231.49792	-393.25351	830.70105	-1192.69104	-412.35577	828.52014	-1245.3053	-380.89209	751.20514	-1228.30518	-537.04608	1359.92432	-847.34583	-545.80475	1135.68066	-782.76489	-530.97668	1023.16406	-771.80774	-515.1524	887.0434	-771.88287	-482.29193	792.28815	-807.18835	-516.84747	786.34058	-766.21918	-495.81525	714.34332	-778.24182	-480.06726	932.06976	-1135.58862	-469.0426	941.60278	-897.96222	-638.74597	962.86005	-1078.93079	-630.99384	973.89252	-930.46295	-586.82269	637.02313	-1171.74658	-620.61163	461.85089	-1139.79785	-738.12573	298.81415	-1140.34363	-829.67035	107.89558	-1102.8313	-877.52203	86.60397	-1063.46936	-698.0437	28.77696	-1088.94836	-497.46481	650.06061	-850.69531	-456.16159	473.1329	-885.02771	-467.77777	286.13464	-875.75012	-448.37689	69.10057	-917.28741	-490.47269	34.81939	-968.78436	-305.73727	35.10708	-936.1532	-539.17896	1675.34973	-1013.10541	NaN	NaN	NaN	NaN	NaN	NaN	NaN	NaN	NaN	NaN	NaN	NaN	NaN	NaN	NaN	NaN	NaN	NaN	NaN	NaN	NaN	NaN	NaN	NaN	NaN	NaN	NaN	NaN	NaN	NaN	NaN	NaN	NaN
173	1.72	-438.58026	1625.33521	-1050.37329	-459.02011	1627.22668	-918.66516	-561.14502	1570.95288	-1065.93579	-576.63104	1572.46985	-935.5271	-592.23077	1416.97095	-1010.38782	-631.70428	1106.32007	-1014.81915	-471.63177	1338.672	-1002.64215	-431.04041	1172.59326	-1013.07379	-653.48383	1240.76147	-923.36444	-502.75751	1379.8938	-1159.25476	-494.46237	1184.21716	-1230.19238	-475.64868	1062.21899	-1239.39478	-428.17477	941.1051	-1231.07593	-390.38425	830.45068	-1192.97375	-410.07968	828.61426	-1245.18359	-380.10516	750.49579	-1228.6355	-529.69043	1360.79565	-846.02112	-538.33063	1136.70081	-781.05109	-523.6413	1024.17407	-770.0022	-507.63367	888.03467	-770.07166	-474.70139	793.4248	-805.57813	-509.20447	787.32458	-764.43945	-488.5451	715.27448	-776.3009	-474.0014	933.23291	-1134.0437	-462.09506	941.89014	-896.61914	-632.28656	963.80115	-1076.43054	-623.64282	974.86096	-928.09595	-578.59241	637.28754	-1171.50391	-610.07935	461.38068	-1141.19177	-730.72778	300.12265	-1140.96204	-826.17932	111.52632	-1102.86621	-874.61029	91.59364	-1063.42017	-697.50848	28.96869	-1088.85645	-492.43082	650.4613	-849.50299	-453.1535	473.00839	-883.70752	-466.16199	286.10095	-874.82782	-448.23956	68.98535	-917.12946	-490.45398	34.86401	-968.55048	-305.46371	34.80282	-936.06897	-533.02979	1676.24536	-1011.63367	NaN	NaN	NaN	NaN	NaN	NaN	NaN	NaN	NaN	NaN	NaN	NaN	NaN	NaN	NaN	NaN	NaN	NaN	NaN	NaN	NaN	NaN	NaN	NaN	NaN	NaN	NaN	NaN	NaN	NaN	NaN	NaN	NaN
174	1.73	-432.53769	1626.18115	-1049.17126	-452.69742	1627.93445	-917.37073	-555.03894	1571.69873	-1064.49097	-570.29413	1573.09692	-934.065	-585.87506	1417.55432	-1008.80176	-625.12073	1106.77673	-1012.35858	-465.17468	1339.44617	-1001.49036	-424.42419	1173.41797	-1012.11609	-646.60895	1241.36865	-921.08862	-496.86487	1380.69495	-1157.96912	-488.76288	1185.01086	-1228.84595	-470.95285	1062.93237	-1238.31995	-424.49924	941.28339	-1230.77258	-387.38785	830.04401	-1193.38391	-407.69559	828.71283	-1245.64905	-379.21286	749.6778	-1229.13672	-522.36188	1361.5509	-844.66492	-530.67999	1137.50781	-779.29565	-516.07471	1025.02722	-768.12622	-500.02026	888.93683	-768.20087	-467.10641	794.49194	-803.80841	-501.47461	788.17133	-762.53662	-480.63742	716.09534	-774.79297	-468.07532	934.16083	-1132.39258	-454.65366	942.1651	-895.09192	-626.3316	964.40131	-1073.99182	-616.46558	975.58636	-925.69952	-569.98962	637.29828	-1171.40259	-598.98676	460.72379	-1142.79785	-722.82306	301.35291	-1141.71985	-822.9585	115.70512	-1102.94849	-871.43945	97.06944	-1063.29517	-696.88538	29.27494	-1088.70923	-487.20053	650.79413	-848.15527	-450.0686	472.88623	-882.38464	-464.47784	286.06586	-873.85339	-448.02008	68.84671	-917.02856	-490.40765	34.92267	-968.30151	-305.17258	34.43765	-936.01184	-526.95459	1676.96216	-1010.1355	NaN	NaN	NaN	NaN	NaN	NaN	NaN	NaN	NaN	NaN	NaN	NaN	NaN	NaN	NaN	NaN	NaN	NaN	NaN	NaN	NaN	NaN	NaN	NaN	NaN	NaN	NaN	NaN	NaN	NaN	NaN	NaN	NaN
175	1.74	-426.49954	1626.87964	-1047.92505	-446.28204	1628.48718	-916.33264	-548.99261	1572.32068	-1063.09656	-564.02032	1573.54492	-932.66418	-579.58319	1418.03088	-1007.1972	-618.59735	1107.26428	-1009.9043	-458.78561	1340.09607	-1000.46631	-417.91064	1174.03418	-1011.09882	-639.61469	1241.7959	-918.88458	-491.11649	1381.28503	-1156.87158	-483.23071	1185.57349	-1227.52026	-466.05548	1063.39136	-1237.3064	-420.79694	941.26831	-1230.54553	-384.26309	829.52991	-1194.02417	-405.34668	828.50616	-1245.94482	-378.16971	748.77509	-1229.79773	-515.09772	1362.13684	-843.38715	-522.91016	1138.22144	-777.52917	-508.40457	1025.74951	-766.25293	-492.17627	889.62671	-766.27765	-459.22284	795.08582	-801.96417	-493.47031	788.87616	-760.60309	-472.68326	716.89868	-772.78693	-462.20981	934.89502	-1130.84448	-447.73019	942.29779	-893.62488	-620.42413	964.7677	-1071.62012	-609.69067	976.17688	-923.31372	-561.07111	637.07513	-1171.37939	-587.34094	459.90521	-1144.64294	-714.34326	302.55276	-1142.63403	-818.27716	119.5908	-1102.87573	-867.67432	102.90031	-1063.01709	-696.17114	29.51129	-1088.53015	-482.33102	651.18524	-846.58905	-446.82446	472.77924	-881.05017	-462.57227	285.98752	-872.91266	-448.02179	68.98885	-916.9823	-490.34393	34.98582	-968.07733	-304.84921	34.07019	-936.01288	-520.91998	1677.49011	-1008.65875	NaN	NaN	NaN	NaN	NaN	NaN	NaN	NaN	NaN	NaN	NaN	NaN	NaN	NaN	NaN	NaN	NaN	NaN	NaN	NaN	NaN	NaN	NaN	NaN	NaN	NaN	NaN	NaN	NaN	NaN	NaN	NaN	NaN
